# xmcd CD database file
#
# Track frame offsets:
#	150
#	29228
#	67243
#	89460
#	103475
#	134408
#	158310
#	182515
#	212180
#	241421
#
# Disc length: 3371 seconds
#
# Revision: 0
# Processed by: cddbd v1.5.2PL0 Copyright (c) Steve Scherf et al.
# Submitted via: CDex 1.51
#
DISCID=940d290a
DTITLE=Revelation - Salvation's Answer
DYEAR=1991
DGENRE=Doom Metal
TTITLE0=Lost Innocence
TTITLE1=Salvation's Answer
TTITLE2=Infinite Nothingness
TTITLE3=Paradox
TTITLE4=Images of Darkness
TTITLE5=Long after Midnight
TTITLE6=Poets and Paupers
TTITLE7=Waiting for... the End
TTITLE8=Blessed Realm
TTITLE9=TV John Show from 1992
EXTD=YEAR: 1991
EXTT0=
EXTT1=
EXTT2=
EXTT3=
EXTT4=
EXTT5=
EXTT6=
EXTT7=
EXTT8=
EXTT9=
PLAYORDER=
